<?xml version="1.0" standalone="no"?>
<!DOCTYPE svg PUBLIC "-//W3C//DTD SVG 20010904//EN"
 "http://www.w3.org/TR/2001/REC-SVG-20010904/DTD/svg10.dtd">
<svg version="1.0" xmlns="http://www.w3.org/2000/svg"
 width="700.000000pt" height="700.000000pt" viewBox="0 0 700.000000 700.000000"
 preserveAspectRatio="xMidYMid meet">
<metadata>
Created by potrace 1.14, written by Peter Selinger 2001-2017
</metadata>
<g transform="translate(0.000000,700.000000) scale(0.100000,-0.100000)"
fill="#000000" stroke="none">
<path d="M2507 6986 c-21 -8 -48 -22 -60 -33 -47 -39 -529 -520 -553 -550 -95
-124 19 -321 178 -308 69 6 102 27 201 126 49 49 89 89 91 89 1 0 3 -249 4
-552 2 -315 7 -569 12 -589 22 -82 96 -132 195 -133 90 0 139 37 172 129 16
46 18 109 17 820 0 424 -3 794 -6 823 -9 71 -40 132 -83 160 -44 28 -118 36
-168 18z"/>
<path d="M3880 6997 c-3 -2 -27 -7 -55 -10 -166 -20 -342 -123 -445 -262 -55
-75 -88 -145 -112 -243 -21 -81 -22 -110 -23 -457 0 -376 5 -447 41 -555 48
-143 179 -282 344 -365 109 -54 150 -65 270 -69 67 -3 92 0 120 14 106 55 145
180 87 284 -30 54 -64 72 -198 101 -134 30 -177 55 -218 126 -47 82 -55 153
-55 454 1 311 6 367 35 430 27 57 99 121 153 137 134 39 276 -10 364 -126 26
-34 40 -83 48 -162 6 -70 24 -105 66 -137 64 -48 176 -54 238 -13 81 53 101
166 60 333 -68 270 -245 440 -525 503 -56 13 -187 24 -195 17z"/>
<path d="M5740 6997 c-3 -3 -25 -7 -50 -10 -25 -2 -81 -16 -125 -30 -210 -68
-375 -242 -430 -452 -29 -114 -34 -182 -35 -560 -2 -320 6 -381 61 -503 71
-158 184 -270 343 -342 137 -62 315 -84 439 -53 162 40 327 146 417 268 77
105 111 212 124 390 7 94 9 652 3 690 -35 198 -122 347 -274 463 -50 39 -194
107 -243 116 -19 3 -46 8 -60 11 -41 9 -165 17 -170 12z m147 -412 c69 -20
131 -76 169 -153 l29 -57 0 -365 c0 -353 -1 -367 -22 -412 -60 -130 -222 -199
-360 -152 -105 36 -170 115 -193 235 -10 52 -15 627 -6 669 3 14 9 39 12 55 9
42 59 109 106 141 71 50 176 65 265 39z"/>
<path d="M5725 4438 c-307 -36 -538 -246 -611 -556 -24 -101 -24 -768 0 -862
24 -90 96 -235 148 -296 46 -54 143 -133 205 -167 74 -39 196 -78 267 -83 82
-7 240 17 326 48 188 69 350 259 409 479 22 81 23 97 21 546 -1 312 -6 353
-59 477 -96 222 -321 389 -555 412 -33 3 -65 6 -71 8 -5 1 -41 -2 -80 -6z
m211 -431 c70 -37 135 -122 150 -198 4 -19 6 -180 5 -359 -1 -361 -6 -397 -63
-468 -73 -91 -233 -136 -331 -93 -101 44 -167 124 -186 228 -6 27 -11 193 -13
369 l-2 319 25 55 c33 70 118 154 164 161 2 1 26 6 52 13 54 14 145 2 199 -27z"/>
<path d="M1147 4424 c-42 -13 -80 -47 -327 -294 -153 -153 -287 -294 -296
-312 -47 -91 11 -229 115 -274 85 -36 155 -7 277 116 49 49 92 90 96 90 4 0 6
-249 4 -552 -1 -335 1 -565 7 -583 27 -84 120 -146 208 -140 96 6 156 70 177
185 6 34 9 357 7 825 -2 685 -4 776 -19 822 -36 114 -124 155 -249 117z"/>
<path d="M2410 4418 c-244 -62 -440 -263 -506 -518 -14 -55 -17 -121 -17 -425
-1 -398 1 -420 37 -527 36 -108 89 -193 171 -274 92 -92 178 -139 313 -174
121 -32 215 -36 313 -14 275 62 459 244 541 534 8 29 13 134 15 300 1 140 4
284 5 320 5 195 -40 375 -125 499 -80 117 -236 227 -388 276 -98 31 -247 32
-359 3z m305 -408 c82 -40 146 -127 160 -221 14 -86 2 -661 -15 -724 -27 -101
-150 -187 -278 -194 -97 -5 -210 66 -256 162 -35 72 -41 146 -41 487 1 279 2
298 22 341 39 86 134 161 220 175 21 3 39 7 41 9 7 6 112 -18 147 -35z"/>
<path d="M4349 4424 c-41 -12 -82 -49 -319 -286 -270 -271 -314 -323 -323
-385 -16 -106 81 -212 196 -215 72 -1 129 32 223 129 61 62 84 81 84 67 1 -10
2 -262 3 -559 2 -528 2 -541 23 -586 47 -101 157 -142 258 -96 58 27 96 77
112 147 4 19 7 397 5 839 -2 866 -1 842 -54 900 -45 49 -134 68 -208 45z"/>
<path d="M1480 1949 c-41 -11 -88 -27 -104 -35 -16 -8 -35 -14 -43 -14 -7 0
-13 -3 -13 -8 0 -4 -13 -13 -28 -20 -46 -20 -158 -118 -203 -177 -69 -91 -112
-201 -124 -315 -3 -30 -8 -73 -10 -95 -6 -57 -6 -665 0 -694 62 -308 280 -531
565 -578 51 -9 187 -9 244 0 130 21 268 89 356 176 96 96 141 169 185 307 l29
89 0 385 c-1 447 -7 500 -76 623 -106 188 -225 285 -433 350 -105 33 -237 35
-345 6z m272 -401 c66 -23 125 -75 159 -145 24 -48 24 -49 24 -403 0 -417 -2
-428 -80 -506 -99 -100 -225 -121 -343 -59 -90 47 -133 106 -152 207 -6 28
-11 193 -11 367 -2 304 -1 318 20 373 33 87 111 158 196 179 49 12 126 7 187
-13z"/>
<path d="M3455 1943 c-35 -17 -112 -88 -250 -227 -110 -111 -228 -228 -262
-260 -34 -32 -71 -72 -82 -89 -62 -102 -13 -244 101 -291 98 -41 189 4 331
162 21 24 42 40 47 37 6 -4 8 -10 5 -15 -6 -9 -8 -168 -5 -420 1 -154 5 -192
19 -226 34 -77 99 -117 188 -116 62 0 135 37 157 80 37 71 39 106 37 647 -1
292 -4 546 -7 565 -9 66 -46 122 -94 146 -71 36 -126 38 -185 7z"/>
</g>
</svg>
